<svg width="120" height="100" viewBox="0 0 120 100" fill="none" xmlns="http://www.w3.org/2000/svg">
<g id="Frame 1" clip-path="url(#clip0)">
<g id="lightGroup">
<path id="light1" d="M48 45.268C49.3333 46.0378 49.3333 47.9623 48 48.7321L13.5 68.6506C12.1667 69.4204 10.5 68.4582 10.5 66.9186V27.0814C10.5 25.5418 12.1667 24.5796 13.5 25.3494L48 45.268Z" fill="#27F2E6" fill-opacity="0.58"/>
</g>
<g id="darkGroup">
<path id="dark1" d="M48 45.268C49.3333 46.0378 49.3333 47.9623 48 48.7321L13.5 68.6506C12.1667 69.4204 10.5 68.4582 10.5 66.9186V27.0814C10.5 25.5418 12.1667 24.5796 13.5 25.3494L48 45.268Z" fill="#2521ED" fill-opacity="0.5"/>
<path id="dark2" d="M64 45.268C65.3333 46.0378 65.3333 47.9623 64 48.7321L29.5 68.6506C28.1667 69.4204 26.5 68.4582 26.5 66.9186V27.0814C26.5 25.5418 28.1667 24.5796 29.5 25.3494L64 45.268Z" fill="#2521ED" fill-opacity="0.5"/>
</g>
</g>
<defs>
<clipPath id="clip0">
<rect width="120" height="100" fill="white"/>
</clipPath>
</defs>
</svg>
